<svg width="180" height="180" viewBox="0 0 180 180" fill="none" xmlns="http://www.w3.org/2000/svg">
<path d="M90 0C65.1562 0 43.9453 8.78906 26.3672 26.3672C8.78906 43.9453 0 65.1562 0 90C0 114.844 8.78906 136.055 26.3672 153.633C43.9453 171.211 65.1562 180 90 180C114.844 180 136.055 171.211 153.633 153.633C171.211 136.055 180 114.844 180 90C180 65.1562 171.211 43.9453 153.633 26.3672C136.055 8.78906 114.844 0 90 0ZM15.1172 90C15.1172 69.375 22.4414 51.7383 37.0898 37.0898C51.7383 22.4414 69.375 15.1172 90 15.1172C108.516 15.1172 124.219 20.8594 137.109 32.3437L32.3437 137.109C20.8594 124.219 15.1172 108.516 15.1172 90ZM90 164.883C71.4844 164.883 55.7812 159.141 42.8906 147.656L147.656 42.8906C159.141 55.7812 164.883 71.4844 164.883 90C164.883 110.625 157.559 128.262 142.91 142.91C128.262 157.559 110.625 164.883 90 164.883Z" fill="#F24E1E"/>
</svg>
