<svg width="180" height="180" viewBox="0 0 180 180" fill="none" xmlns="http://www.w3.org/2000/svg">
<path d="M90 0.222168C72.2436 0.222168 54.886 5.48754 40.1221 15.3524C25.3582 25.2174 13.8512 39.2387 7.05613 55.6435C0.261067 72.0482 -1.51683 90.0995 1.94726 107.515C5.41136 124.93 13.9619 140.927 26.5175 153.482C39.0732 166.038 55.07 174.589 72.4852 178.053C89.9004 181.517 107.952 179.739 124.356 172.944C140.761 166.149 154.783 154.642 164.647 139.878C174.512 125.114 179.778 107.756 179.778 89.9999C179.778 66.1894 170.319 43.3541 153.482 26.5175C136.646 9.68087 113.811 0.222168 90 0.222168ZM148.636 59.8683L74.9061 133.542L31.3639 89.9999C29.8757 88.5118 29.0397 86.4934 29.0397 84.3888C29.0397 82.2843 29.8757 80.2659 31.3639 78.7777C32.852 77.2896 34.8704 76.4535 36.975 76.4535C39.0796 76.4535 41.0979 77.2896 42.5861 78.7777L75.0183 111.21L137.526 48.7583C138.263 48.0214 139.138 47.4369 140.101 47.0381C141.063 46.6393 142.095 46.4341 143.137 46.4341C144.179 46.4341 145.211 46.6393 146.174 47.0381C147.137 47.4369 148.011 48.0214 148.748 48.7583C149.485 49.4951 150.07 50.3699 150.468 51.3327C150.867 52.2954 151.073 53.3273 151.073 54.3694C151.073 55.4115 150.867 56.4433 150.468 57.4061C150.07 58.3689 149.485 59.2436 148.748 59.9805L148.636 59.8683Z" fill="#4ECB71"/>
</svg>
